# xmcd
#
# Track frame offsets:
#	150
#	18604
#	35351
#	58543
#	78050
#	99232
#	122696
#	143479
#	164169
#	186620
#	209105
#	227588
#	248366
#	271584
#	297521
#	315637
#	335138
#
# Disc length: 4757 seconds
#
# Revision: 0
# Processed by: cddbd v1.5.2PL0 Copyright (c) Steve Scherf et al.
# Submitted via: audiograbber 1.83.01
#
DISCID=f2129311
DTITLE=Stefan Waggershausen - Duette und Balladen
DYEAR=2003
DGENRE=Ballad
TTITLE0=Bienvenido a Salomé
TTITLE1=Liebe A.D.
TTITLE2=Jenseits von Liebe
TTITLE3=Tränen hinter deinem Lächeln
TTITLE4=Zu nah am Feuer
TTITLE5=Hallo Engel
TTITLE6=Das erste Mal tat's noch weh
TTITLE7=Irgendjemand ruft nach mir
TTITLE8=Jesse
TTITLE9=Nach Liebe rufen wirst du nie
TTITLE10=Linda Paloma
TTITLE11=Louisiana
TTITLE12=Luka and Laura
TTITLE13=Heute ist nicht mein Tag
TTITLE14=Du bist mir total egal
TTITLE15=Wintermond
TTITLE16=So lang Du jung in deinem Herzen bist
EXTD=
EXTT0=
EXTT1=
EXTT2=
EXTT3=
EXTT4=
EXTT5=
EXTT6=
EXTT7=
EXTT8=
EXTT9=
EXTT10=
EXTT11=
EXTT12=
EXTT13=
EXTT14=
EXTT15=
EXTT16=
PLAYORDER=
